<?xml version="1.0"?>
<svg width="640" height="480" xmlns="http://www.w3.org/2000/svg" xmlns:svg="http://www.w3.org/2000/svg">
 <!-- Created with SVG-edit - https://github.com/SVG-Edit/svgedit-->
 <g class="layer">
  <title>Layer 1</title>
  <path d="m100.908326,114.859342c-0.306836,-7.482741 -0.996946,-20.360082 -8.622818,-14.148658c-3.528945,1.862044 -14.124367,6.599061 -9.001377,-3.188472c-2.807989,-9.752361 -14.233616,4.763607 -15.020069,-2.013378c6.145411,-9.354324 -2.962172,-19.634386 -9.399173,-13.003403c-3.960927,1.547473 -12.036034,11.342025 -13.616648,8.235624c3.678742,-6.610234 11.96511,-20.143587 1.970808,-24.201148c-10.860533,-3.492493 -20.403189,7.109843 -29.84729,12.896974c-2.834065,3.136883 -6.441325,2.59012 -2.916035,-2.631713c12.230753,-26.915696 31.426702,-47.178564 52.725741,-57.475544c5.162994,-2.378861 13.112478,-7.645959 13.26826,4.370445c3.192533,11.059342 5.46395,24.886428 13.685335,30.576994c9.468703,7.463934 2.681294,-21.54505 12.490746,-10.587051c4.128436,3.796583 12.962285,-3.440736 14.173279,0.626004c-2.405379,4.880305 -3.534162,13.544175 2.821241,9.090658c11.036393,-6.155776 19.142688,-19.944221 24.577024,-34.454339c5.676642,-1.209406 11.320938,4.885426 16.496905,8.123195c17.189115,13.79954 27.795775,39.875319 32.300751,66.459053c-4.678277,-3.729384 -9.213604,-11.268344 -14.882322,-14.232766c-6.043752,-4.281575 -12.860192,-5.036523 -19.503596,-4.742288c-3.113486,5.261591 -4.952253,11.793268 -2.245986,18.330014c2.355984,12.521029 -7.516022,-4.309307 -11.08033,-5.452726c-6.654965,-6.745853 -13.030774,3.445269 -11.57061,13.020102c-1.504901,1.845125 -6.146291,-3.093612 -8.873338,-2.520409c-5.606932,-2.39462 -9.556094,1.054848 -6.178358,9.32292c-4.945823,-0.855728 -12.170559,-11.667945 -16.544578,-1.487715c-1.90686,2.543143 -2.889358,7.609795 -5.20755,9.087645l-0.000012,-0.000018z" fill="#ffff00" id="svg_4" stroke="#1717c4" stroke-dasharray="null" stroke-linecap="null" stroke-linejoin="null" stroke-width="5"/>
  <text fill="#0000ff" font-family="serif" font-size="24" font-weight="bold" id="svg_1" stroke="#000000" stroke-width="0" text-anchor="middle" x="111.5" xml:space="preserve" y="72.5">F A M Soft</text>
  <line fill="none" id="svg_2" stroke="#1717c4" stroke-width="5" x1="34.5" x2="180.5" y1="117.5" y2="115.5"/>
  <line fill="none" id="svg_3" stroke="#1717c4" stroke-width="5" x1="35.5" x2="181.5" y1="11.5" y2="9.5"/>
  <path d="m118.535869,103.254701c-2.037396,-0.815318 -2.850915,-3.056094 -2.850915,-3.056094s-0.917908,0.507549 -0.917908,-0.917908s0.917908,0.917908 1.835816,-4.585941c0,0 2.544945,-0.714528 2.037396,-6.623337l-0.611939,0c0,0 1.528047,-6.317368 0,-8.457354c-1.529847,-2.139986 -2.139986,-3.565443 -5.503849,-4.585941s-2.138186,-0.817118 -4.584141,-0.712729c-2.445955,0.10259 -4.485151,1.425457 -4.485151,2.138186c0,0 -1.528047,0.10259 -2.138186,0.714528c-0.611939,0.611939 -1.630637,3.462853 -1.630637,4.177382s0.509349,5.503849 1.018698,6.522547l-0.606539,0.20338c-0.509349,5.908809 2.037396,6.623337 2.037396,6.623337c0.916108,5.503849 1.834016,3.160484 1.834016,4.585941s-0.917908,0.917908 -0.917908,0.917908s-0.813519,2.240776 -2.850915,3.056094c-2.037396,0.813519 -13.347464,5.19428 -14.267172,6.112188c-0.919708,0.919708 -0.815318,5.19788 -0.815318,5.19788l48.499746,0c0,0 0.106189,-4.278172 -0.813519,-5.19788c-0.921508,-0.917908 -12.231576,-5.29867 -14.268972,-6.112188zm-22.443754,-0.309569c-0.178182,-0.323968 -0.266373,-0.557944 -0.266373,-0.557944s-0.777522,0.430157 -0.777522,-0.777522s0.777522,0.777522 1.555044,-3.885811c0,0 2.157984,-0.604739 1.726027,-5.613638l-0.518348,0c0,0 0.257374,-1.063694 0.426557,-2.40096c-0.007199,-0.554345 0.010799,-1.144685 0.066593,-1.792621l0.068393,-0.766723c-0.037796,-0.885511 -0.192581,-1.690031 -0.561544,-2.206579c-1.29587,-1.812419 -1.814218,-3.021898 -4.663333,-3.885811c-2.849115,-0.863914 -1.814218,-0.692931 -3.885811,-0.604739c-2.073392,0.086391 -3.80122,1.207679 -3.80122,1.814218c0,0 -1.29587,0.086391 -1.814218,0.604739c-0.487751,0.487751 -1.268873,2.631337 -1.362464,3.39266l0,0.505749c0.084592,1.175282 0.464354,4.407759 0.844116,5.169083l-0.514748,0.172783c-0.430157,5.008899 1.726027,5.613638 1.726027,5.613638c0.777522,4.663333 1.555044,2.678132 1.555044,3.885811s-0.777522,0.777522 -0.777522,0.777522s-0.689331,1.90241 -2.417158,2.589941c-0.109789,0.043196 -0.250175,0.10079 -0.417558,0.165583l0,9.420257l1.034896,0c-0.052195,-2.30017 0.138586,-5.268073 1.342666,-6.468553c0.640736,-0.638936 2.741126,-1.690031 11.432456,-5.151084zm40.189978,-16.299169c-0.071993,-0.680332 -0.228577,-1.286871 -0.525547,-1.70263c-1.29407,-1.814218 -1.814218,-3.021898 -4.661533,-3.885811c-2.850915,-0.863914 -1.814218,-0.692931 -3.887611,-0.604739c-2.071593,0.086391 -3.79942,1.207679 -3.79942,1.814218c0,0 -1.29407,0.086391 -1.814218,0.604739c-0.487751,0.489551 -1.276072,2.649335 -1.364263,3.403459l0.059394,0l0.143986,1.643236c0.035996,0.415758 0.039596,0.784721 0.048595,1.160884c0.161984,1.19868 0.377962,2.429757 0.593941,2.859914l-0.514748,0.172783c-0.430157,5.008899 1.727827,5.613638 1.727827,5.613638c0.777522,4.663333 1.553245,2.678132 1.553245,3.885811s-0.777522,0.777522 -0.777522,0.777522s-0.09539,0.255574 -0.293371,0.608339c8.585141,3.419658 10.667532,4.463553 11.301069,5.10069c1.205879,1.20048 1.39486,4.166583 1.342666,6.468553l0.863914,0l0,-9.549844c-0.028797,-0.010799 -0.068393,-0.026997 -0.093591,-0.037796c-1.726027,-0.689331 -2.417158,-2.589941 -2.417158,-2.589941s-0.779322,0.430157 -0.779322,-0.777522s0.779322,0.777522 1.555044,-3.885811c0,0 1.447055,-0.412159 1.733227,-3.313468l0,-2.208379c-0.0018,-0.032397 -0.0018,-0.059394 -0.005399,-0.091791l-0.520148,0c0,0 0.386961,-1.60184 0.525547,-3.349465l0,-2.116588l0.005399,0z" fill="#ff0000" id="svg_5" stroke="#ffffff" stroke-dasharray="null" stroke-linecap="null" stroke-linejoin="null" stroke-width="0"/>
 </g>
</svg>